<?xml version="1.0" encoding="UTF-8"?>
<svg width="198px" height="27px" viewBox="0 0 198 27" version="1.1" xmlns="http://www.w3.org/2000/svg" xmlns:xlink="http://www.w3.org/1999/xlink">
    <!-- Generator: Sketch 55.2 (78181) - https://sketchapp.com -->
    <title>nt-logo copy</title>
    <desc>Created with Sketch.</desc>
    <g id="Page-1" stroke="none" stroke-width="1" fill="none" fill-rule="evenodd">
        <g id="nt-logo-copy">
            <path d="M59.9201013,20.9952876 C55.27482,20.9952876 53,17.3964186 53,13.5493517 C53,8.43544153 55.9607626,6 59.5159402,6 C63.7241516,6 66,8.71466413 66,13.7034412 L55.0557709,13.7034412 C55.1503837,16.9879262 57.0518946,19.2289461 60.076418,19.2289461 C61.6813935,19.2600789 63.2153807,18.5645338 64.2548058,17.3343691 L65.4703742,18.6291346 C64.0600968,20.2055748 62.0273759,21.0721499 59.9201013,20.9952876 Z M59.5159402,7.64017421 C56.6467052,7.64017421 55.4311368,9.53475124 55.1185033,12.0601645 L63.8485879,12.0601645 C63.9313187,10.8754929 63.5037328,9.71220677 62.6746796,8.86644056 C61.8456264,8.02067434 60.6950831,7.57401752 59.5159402,7.64017421 Z" id="Combined-Shape" fill="#494949"></path>
            <polygon id="nextthought-path" fill="#494949" points="77.8161729 21 73.883747 15.1998541 70.0108887 21 68 21 72.7769416 13.9213713 68.0883907 7 70.2722178 7 74.1748599 12.7368344 77.9910328 7 79.9711769 7 75.253803 13.9520058 80 20.9979577 77.8161729 20.9979577"></polygon>
            <path d="M84.4465729,8.55809674 L82,8.55809674 L82,6.90983176 L84.4435832,6.90983176 L84.4435832,2 L86.3470269,2 L86.3470269,6.90983176 L90.4249806,6.90983176 L90.4249806,8.55809674 L86.3470269,8.55809674 L86.3470269,15.2060988 C86.3470269,17.2789169 86.9509467,19.2618297 89.6097885,19.2618297 C89.9856195,19.2585627 90.3601888,19.2177368 90.7279371,19.1399579 L91,20.8781283 C90.3987932,20.9557739 89.7934101,20.9964738 89.1872439,21 C85.3504595,21 84.4435832,18.1030494 84.4435832,15.2670347 L84.4435832,8.55809674 L84.4465729,8.55809674 Z" id="nextthought-path" fill="#494949"></path>
            <path d="M101.44576,8.55809674 L99,8.55809674 L99,6.90983176 L101.44576,6.90983176 L101.44576,2 L103.348572,2 L103.348572,6.90983176 L107.426168,6.90983176 L107.426168,8.55809674 L103.348572,8.55809674 L103.348572,15.2060988 C103.348572,17.2789169 103.952291,19.2618297 106.611246,19.2618297 C106.986627,19.2586226 107.360747,19.2177957 107.728027,19.1399579 L108,20.8781283 C107.398996,20.9558037 106.793812,20.9965038 106.187846,21 C102.352336,21 101.44576,18.1030494 101.44576,15.2670347 L101.44576,8.55809674 Z" id="nextthought-path" fill="#494949"></path>
            <path d="M121.170496,21 L121.170496,11.9634075 C121.210342,10.9694195 120.8487,10.0048782 120.177128,9.31397929 C119.505555,8.62308034 118.588438,8.27206145 117.657963,8.34979104 C116.05644,8.2704461 114.559186,9.19613906 113.828547,10.7173681 L113.828547,21 L112,21 L112,0 L113.828547,0 L113.828547,8.75493245 C114.860909,7.33749424 116.470684,6.53706495 118.152916,6.60472349 C120.851697,6.60472349 123,8.31917582 123,11.5582661 L123,21 L121.171453,21 L121.170496,21 Z" id="nextthought-path" fill="#494949"></path>
            <path d="M132.5,21 C128.132921,21 126,17.6203448 126,13.4482759 C126,9.2762069 128.136891,6 132.5,6 C136.863109,6 139,9.37965517 139,13.5517241 C139,17.7237931 136.863109,21 132.5,21 Z M132.5,7.64068966 C129.31104,7.64068966 128.047565,10.1048276 128.047565,13.4844828 C128.047565,16.8010345 129.31104,19.3572414 132.5,19.3572414 C135.68896,19.3572414 136.953428,16.8962069 136.953428,13.5155172 C136.953428,10.1989655 135.689953,7.64068966 132.5,7.64068966 Z" id="Combined-Shape" fill="#494949"></path>
            <path d="M143,16.0918114 L143,7 L144.838306,7 L144.838306,15.8188586 C144.835693,16.7953531 145.227247,17.728925 145.919059,18.3956703 C146.610871,19.0624157 147.540534,19.4021884 148.485082,19.3334988 C150.586141,19.3334988 152.161694,18.1205955 152.161694,15.9101737 L152.161694,7 L154,7 L154,16.0918114 C154,18.9702233 152.075072,21 148.485082,21 C144.955727,21 143,18.9404467 143,16.0918114 L143,16.0918114 Z" id="nextthought-path" fill="#494949"></path>
            <path d="M50,10.9101219 L50,20 L48.1616939,20 L48.1616939,11.1840091 C48.164307,10.2077222 47.7727531,9.2743488 47.080941,8.60774524 C46.3891289,7.94114168 45.4594658,7.60144124 44.5149182,7.67011625 C42.4138595,7.67011625 40.8383061,8.88276155 40.8383061,11.091721 L40.8383061,19.997023 L39,19.997023 L39,10.9071449 C39,8.02934505 40.9249278,6 44.5149182,6 C48.0433109,6.00496172 50,8.06308477 50,10.9101219 Z" id="nextthought-path" fill="#494949"></path>
            <path d="M170,21.1769098 C170,25.3856951 167.47518,26.9968631 163.850098,26.9968631 C161.836614,27.0573556 159.896427,26.2404776 158.534944,24.7590212 L159.751796,23.5350027 C160.815159,24.7009827 162.330198,25.3535742 163.909863,25.3260584 C166.702155,25.3260584 168.127694,24.1919839 168.127694,21.5357075 L168.127694,20.3410186 C167.176214,20.5813279 166.198334,20.7018638 165.216852,20.6998163 C161.563357,20.6998163 158,18.6408844 158,13.8640841 C158,9.89580075 160.76192,7 165.306009,7 C166.89911,7.04178655 168.478754,7.3033444 170,7.77723214 L170,21.1769098 Z M165.395167,19.0260787 C166.32238,19.0337804 167.244864,18.8935097 168.127694,18.6105772 L168.127694,9.14789813 C167.157849,8.83746757 166.146197,8.67658347 165.127694,8.67080469 C161.894513,8.67080469 160.019268,10.7297366 160.019268,13.8337769 C160.018289,17.1480121 162.127694,19.0270563 165.394187,19.0270563 L165.395167,19.0260787 Z" id="Combined-Shape" fill="#494949"></path>
            <path d="M184.170496,20.9948975 L184.170496,11.958305 C184.210342,10.964317 183.8487,9.9997757 183.177128,9.30887675 C182.505555,8.6179778 181.588438,8.26695892 180.657963,8.3446885 C179.05656,8.26586495 177.559551,9.19140601 176.828547,10.7122655 L176.828547,20.9948975 L175,20.9948975 L175,0 L176.828547,0 L176.828547,8.75493245 C177.860909,7.33749424 179.470684,6.53706495 181.152916,6.60472349 C183.851697,6.60472349 186,8.31917582 186,11.5582661 L186,21 L184.171453,21 L184.170496,20.9948975 Z" id="nextthought-path" fill="#494949"></path>
            <path d="M191.446486,8.55809674 L189,8.55809674 L189,6.90983176 L191.446486,6.90983176 L191.446486,2 L193.349087,2 L193.349087,6.90983176 L197.426231,6.90983176 L197.426231,8.55809674 L193.348091,8.55809674 L193.348091,15.2060988 C193.348091,17.2789169 193.951743,19.2618297 196.610404,19.2618297 C196.985743,19.2586226 197.359822,19.2177957 197.727061,19.1399579 L198,20.8781283 C197.398725,20.9557698 196.793279,20.9964697 196.18705,21 C192.351965,21 191.44549,18.1030494 191.44549,15.2670347 L191.44549,8.55809674 L191.446486,8.55809674 Z" id="nextthought-path" fill="#494949"></path>
            <path d="M27.9676618,12.4084461 C28.0794393,12.7540454 27.892223,13.1253247 27.5483136,13.2400792 L20.2436668,15.6419077 C20.1352389,15.678197 20.0504976,15.7640171 20.0154147,15.8730655 C19.9803319,15.9821139 19.9990911,16.1013865 20.065943,16.1943282 L24.5799272,22.4831156 C24.7917363,22.7782227 24.72718,23.1892169 24.4351522,23.4048173 L19.7124923,26.8734579 C19.572235,26.9766744 19.3965895,27.0193151 19.2247569,26.9918635 C19.0529242,26.9644119 18.8992076,26.8691529 18.7979138,26.7273466 L14.2879234,20.4455645 C14.2216208,20.3521047 14.1142846,20.2965944 13.9998711,20.2965944 C13.8854577,20.2965944 13.7781215,20.3521047 13.7118188,20.4455645 L9.20282691,26.7263459 C9.10151477,26.8680843 8.94789266,26.9633647 8.77613307,26.9909927 C8.60437348,27.0186206 8.42872089,26.9763046 8.28824839,26.8734579 L3.5645901,23.4008143 C3.27268703,23.1855818 3.20811008,22.7749027 3.41981512,22.4801134 L7.93280084,16.1943282 C7.99965275,16.1013865 8.01841196,15.9821139 7.9833291,15.8730655 C7.94824623,15.7640171 7.86350496,15.678197 7.75507707,15.6419077 L0.451428716,13.2400792 C0.107902891,13.1248796 -0.079112025,12.7539998 0.032080485,12.4084461 L1.83627633,6.79217065 C1.8889239,6.62588121 2.00562952,6.48754172 2.16047824,6.40787101 C2.31532697,6.32820031 2.49550191,6.31379276 2.66099451,6.36784763 L9.96164752,8.76967606 C10.0705379,8.80502813 10.1897418,8.78581662 10.282087,8.71803239 C10.3744321,8.65024817 10.4286833,8.5421383 10.4279228,8.42741551 L10.4279228,0.659502057 C10.4273924,0.485121828 10.4959962,0.317672652 10.6186421,0.193991849 C10.741288,0.0703110459 10.9079293,0.00053002987 11.0819064,-1.63424829e-13 L16.9178359,-1.63424829e-13 C17.091813,0.00053002987 17.2584543,0.0703110459 17.3811001,0.193991849 C17.503746,0.317672652 17.5723499,0.485121828 17.5718195,0.659502057 L17.5718195,8.42741551 C17.571501,8.54197445 17.6258587,8.64977821 17.7180703,8.71746439 C17.8102819,8.78515057 17.9292268,8.80455632 18.0380948,8.76967606 L25.3387478,6.36784763 C25.5042404,6.31379276 25.6844153,6.32820031 25.839264,6.40787101 C25.9941128,6.48754172 26.1108184,6.62588121 26.1634659,6.79217065 L27.9676618,12.4084461 Z M15.3223157,14.3098936 L15.3233142,14.3098936 C15.4053423,14.0399307 15.6113448,13.8256381 15.8774529,13.7334548 L22.3863365,11.597829 C22.6108223,11.5203282 22.8592852,11.5637871 23.0443139,11.7129167 C23.4089479,12.0189231 23.9051704,12.1149935 24.3572732,11.9671102 C24.9902513,11.7612531 25.3885931,11.1342986 25.3069997,10.472325 C25.2254064,9.81035135 24.6868112,9.29941734 24.0228808,9.25415594 C23.3589504,9.20889454 22.7562936,9.64202722 22.5860262,10.286831 C22.523426,10.517214 22.3480634,10.6997724 22.1207493,10.7711998 L15.6128642,12.9118293 C15.3391975,12.9965493 15.0415438,12.9432204 14.8141056,12.7687204 L14.7991289,12.757712 C14.5662571,12.5924079 14.4266333,12.3251682 14.4237124,12.039165 L14.4237124,5.11289227 C14.4195628,4.87233017 14.5376617,4.64614043 14.7372251,4.51243517 C15.256989,4.18276122 15.4977634,3.5491478 15.3285098,2.95643097 C15.1592563,2.36371414 14.6204793,1.95373876 14.0054016,1.94959758 C13.3903238,1.94551872 12.8461413,2.34825764 12.6690185,2.93865994 C12.4918957,3.52906225 12.7242204,4.16583697 13.2395529,4.50242755 C13.444184,4.63344906 13.5686042,4.85950685 13.5700392,5.10288466 L13.5700392,12.0321597 C13.5677745,12.3183278 13.4280036,12.5858493 13.1946227,12.7507067 L13.1776491,12.7627158 C12.9507015,12.9383284 12.6524815,12.9917588 12.3788905,12.9058248 L5.87000692,10.7651952 C5.64307701,10.6934792 5.46813823,10.5109705 5.40572853,10.2808264 C5.25760195,9.67729214 4.72675524,9.24638048 4.10697917,9.22657439 C3.4872031,9.2067683 2.93004841,9.60291085 2.74386571,10.1957617 C2.50478372,10.9296525 2.90306213,11.7191044 3.63448148,11.9611056 C4.08624929,12.1092092 4.58228766,12.0131014 4.94644237,11.7069121 C5.13132654,11.5567414 5.38029935,11.512503 5.60541816,11.5898229 L12.1143018,13.7274502 C12.3844843,13.8189462 12.5936451,14.0360523 12.6754296,14.3098936 L12.6824188,14.3319104 C12.7771716,14.6047683 12.7355813,14.9066241 12.5705926,15.1435283 L8.54285267,20.7547999 C8.40164514,20.9496116 8.17051041,21.0580772 7.93080394,21.0420186 C7.46110131,21.0179646 7.01148132,21.2351874 6.73765838,21.6184574 C6.28726943,22.245898 6.42388672,23.1196878 7.04418197,23.5789499 C7.34179485,23.7961139 7.71355641,23.8852758 8.07700618,23.8266584 C8.44045594,23.768041 8.76554775,23.5664903 8.98017297,23.2667122 C9.25615845,22.8813654 9.3206702,22.3828724 9.15190605,21.939702 C9.06452639,21.7153407 9.0952764,21.4620049 9.2337788,21.2651885 L13.2615187,15.6549176 C13.4314907,15.423616 13.7028294,15.289311 13.9893874,15.2946433 L14.0093564,15.2946433 C14.2956399,15.2893004 14.5666814,15.4236425 14.7362267,15.6549176 L18.7639666,21.2651885 C18.902658,21.46198 18.9330644,21.7155771 18.8448409,21.939702 C18.6766297,22.3829378 18.7411065,22.8811607 19.016574,23.2667122 C19.2306883,23.5671635 19.5558453,23.7692483 19.9195406,23.8279052 C20.2832359,23.8865622 20.6552264,23.7969138 20.952565,23.5789499 C21.5726936,23.1196921 21.7096948,22.2462921 21.260087,21.6184574 C20.9860905,21.2359354 20.537182,21.0188747 20.0679399,21.0420186 C19.8284849,21.0567444 19.5979588,20.9485645 19.4558912,20.7547999 L15.4271528,15.1435283 C15.262164,14.9066241 15.2205738,14.6047683 15.3153266,14.3319104 L15.3223157,14.3098936 Z" id="Combined-Shape" fill="#3FB34F"></path>
        </g>
    </g>
</svg>